# Blender v2.75 (sub 0) OBJ File: 'bug_v3.blend'
# www.blender.org
o Cube
v 0.725587 -0.725587 -0.906499
v 1.000000 -1.000000 1.000000
v -1.000000 -1.000000 1.000000
v -0.725587 -0.725587 -0.906499
v 0.725587 0.725587 -0.906499
v 0.999999 1.000000 1.000001
v -1.000000 1.000000 1.000000
v -0.725587 0.725587 -0.906499
v 1.000000 -1.000000 0.347690
v -1.000000 -1.000000 0.347690
v 1.000000 1.000000 0.347690
v -1.000000 1.000000 0.347690
v 0.594654 -0.725587 -0.906499
v 0.819549 -1.000000 1.000000
v 0.594654 0.725587 -0.906499
v 0.819548 1.000000 1.000000
v 0.819549 1.000000 0.347690
v 0.819549 -1.000000 0.347690
v -0.594654 -0.725587 -0.906499
v -0.819549 -1.000000 1.000000
v -0.594654 0.725587 -0.906499
v -0.819549 1.000000 1.000000
v -0.819549 -1.000000 0.347690
v -0.819549 1.000000 0.347690
v 0.725587 0.604205 -0.906499
v 0.999999 0.832712 1.000000
v -1.000000 0.832712 1.000000
v -0.725587 0.604205 -0.906499
v -1.000000 0.832712 0.347690
v 1.000000 0.832712 0.347690
v 0.594654 0.604205 -0.906499
v 0.819548 0.832712 1.000000
v -0.594654 0.604205 -0.906499
v -0.819549 0.832712 1.000000
v -1.000000 -0.810245 0.347690
v 1.000000 -0.810245 0.347690
v 0.819549 -0.810245 1.000000
v -0.819549 -0.810245 1.000000
v 0.725587 -0.587903 -0.906499
v 1.000000 -0.810245 1.000000
v -1.000000 -0.810245 1.000000
v -0.725587 -0.587903 -0.906499
v 0.594654 -0.587903 -0.906499
v -0.594654 -0.587903 -0.906499
v -0.939712 -0.939713 0.072149
v -0.939713 0.939713 0.072149
v 0.939713 -0.939713 0.072150
v 0.939712 0.939713 0.072150
v 0.770140 -0.939713 0.072150
v 0.770140 0.939713 0.072150
v -0.770140 -0.939713 0.072149
v -0.770141 0.939713 0.072149
v 0.939712 0.782510 0.072150
v -0.939713 0.782510 0.072149
v -0.939713 -0.761398 0.072149
v 0.939713 -0.761398 0.072150
v -0.839601 -0.839601 -0.385405
v -0.839601 0.839601 -0.385405
v 0.688094 -0.839601 -0.385405
v -0.688094 -0.839601 -0.385405
v -0.839601 0.699146 -0.385405
v -0.839601 -0.680283 -0.385405
v 0.839601 -0.839601 -0.385404
v 0.839601 0.839601 -0.385404
v 0.688094 0.839601 -0.385404
v -0.688094 0.839601 -0.385405
v 0.839601 0.699146 -0.385404
v 0.839601 -0.680283 -0.385404
v 0.770140 -0.939713 0.072150
v -0.770140 -0.939713 0.072149
v 0.688094 -0.839601 -0.385405
v -0.688094 -0.839601 -0.385405
v 0.770140 -1.316602 -0.032140
v -0.770140 -1.316602 -0.032140
v 0.688094 -1.316251 -0.489694
v -0.688094 -1.316251 -0.489694
v 0.770140 -1.316602 -0.032140
v -0.770140 -1.316602 -0.032140
v 0.688094 -1.316251 -0.489694
v -0.688094 -1.316251 -0.489694
v 0.770140 -1.316602 -0.032140
v -0.770140 -1.316602 -0.032140
v 0.688094 -1.316251 -0.489694
v -0.688094 -1.316251 -0.489694
v 0.770140 -1.316602 -0.032140
v -0.770140 -1.316602 -0.032140
v 0.688094 -1.316251 -0.489694
v -0.688094 -1.316251 -0.489694
v 1.025393 -1.316660 0.527717
v -1.025393 -1.316660 0.527716
v 0.916154 -1.316193 -0.565519
v -0.916154 -1.316193 -0.565520
v 1.025393 -1.763046 0.527717
v -1.025393 -1.763046 0.527716
v 0.916154 -1.762579 -0.565520
v -0.916154 -1.762579 -0.565520
v 0.819548 0.832712 0.899529
v -0.819549 0.832712 0.899529
v 0.819549 -0.810245 0.899529
v -0.819549 -0.810245 0.899529
vt 0.829748 0.444886
vt 0.829748 0.413846
vt 0.941954 0.413846
vt 0.941954 0.542481
vt 0.829748 0.542481
vt 0.829748 0.511441
vt 0.965672 0.789943
vt 0.853465 0.789943
vt 0.853465 0.761167
vt 0.598589 0.939294
vt 0.567549 0.939294
vt 0.567549 0.910518
vt 0.857996 0.279852
vt 0.853762 0.256065
vt 0.947535 0.259295
vt 0.574020 0.414673
vt 0.574020 0.392151
vt 0.597704 0.392151
vt 0.853465 0.791434
vt 0.965671 0.791434
vt 0.965671 0.820210
vt 0.931305 0.874728
vt 0.881692 0.874728
vt 0.887706 0.846588
vt 0.690829 0.485245
vt 0.690829 0.534859
vt 0.660475 0.528370
vt 0.859118 0.399813
vt 0.853762 0.369239
vt 0.903342 0.371082
vt 0.903376 0.367747
vt 0.853762 0.367747
vt 0.860250 0.337393
vt 0.569392 0.859447
vt 0.598123 0.854414
vt 0.598123 0.903671
vt 0.574020 0.390659
vt 0.574020 0.368137
vt 0.597704 0.368137
vt 0.942004 0.366169
vt 0.910964 0.366169
vt 0.910964 0.337393
vt 0.941954 0.477418
vt 0.829748 0.477418
vt 0.829748 0.446378
vt 0.829748 0.509950
vt 0.829748 0.478909
vt 0.941954 0.478909
vt 0.282693 0.959717
vt 0.000746 0.959717
vt 0.009245 0.911200
vt 0.009245 0.909708
vt 0.000746 0.861190
vt 0.282692 0.861190
vt 0.205323 0.984892
vt 0.000746 0.984892
vt 0.000746 0.961209
vt 0.897198 0.944122
vt 0.615251 0.944122
vt 0.615251 0.915347
vt 0.377037 0.603123
vt 0.377037 0.490917
vt 0.658983 0.490916
vt 0.282693 0.684392
vt 0.000746 0.684392
vt 0.000746 0.572186
vt 0.897196 0.945614
vt 0.897196 0.962896
vt 0.615251 0.962897
vt 0.819828 0.985268
vt 0.615251 0.985268
vt 0.615251 0.964388
vt 0.315224 0.854796
vt 0.284184 0.854796
vt 0.284184 0.572186
vt 0.574020 0.438687
vt 0.574020 0.416165
vt 0.594900 0.416165
vt 0.828256 0.274721
vt 0.779739 0.283356
vt 0.779739 0.000746
vt 0.489243 0.489425
vt 0.377037 0.489425
vt 0.377037 0.206814
vt 0.598678 0.305727
vt 0.576156 0.305727
vt 0.576156 0.284848
vt 0.696188 0.000746
vt 0.696188 0.238026
vt 0.604432 0.221695
vt 0.347756 0.854796
vt 0.316716 0.854796
vt 0.316716 0.572186
vt 0.602941 0.283356
vt 0.490735 0.283356
vt 0.490734 0.000746
vt 0.772681 0.568991
vt 0.660475 0.568991
vt 0.660475 0.536350
vt 0.940906 0.401879
vt 0.909866 0.401879
vt 0.909866 0.369239
vt 0.859490 0.000746
vt 0.952541 0.004385
vt 0.947590 0.027545
vt 0.490734 0.453561
vt 0.602941 0.453561
vt 0.602941 0.486202
vt 0.333760 0.242164
vt 0.338994 0.272387
vt 0.289754 0.272387
vt 0.915229 0.751984
vt 0.884189 0.751984
vt 0.884189 0.719343
vt 0.942421 0.603123
vt 0.660475 0.603123
vt 0.660475 0.570482
vt 0.284184 0.205323
vt 0.284184 0.000746
vt 0.489243 0.000746
vt 0.829748 0.000746
vt 0.852271 0.000746
vt 0.852271 0.205805
vt 0.829748 0.412354
vt 0.829748 0.207296
vt 0.852271 0.207296
vt 0.366508 0.895896
vt 0.371185 0.922899
vt 0.289418 0.922899
vt 0.291007 0.206814
vt 0.340209 0.208739
vt 0.333798 0.238734
vt 0.828256 0.284848
vt 0.828257 0.567458
vt 0.779739 0.558823
vt 0.778247 0.519043
vt 0.697680 0.533383
vt 0.697680 0.267810
vt 0.014859 0.859698
vt 0.000746 0.779131
vt 0.265695 0.779131
vt 0.490734 0.487693
vt 0.570914 0.487693
vt 0.570914 0.489093
vt 0.242021 0.690380
vt 0.267691 0.685883
vt 0.267691 0.767677
vt 0.936149 0.194335
vt 0.853762 0.194335
vt 0.859859 0.165810
vt 0.858795 0.254573
vt 0.853762 0.225842
vt 0.936092 0.228903
vt 0.936149 0.224351
vt 0.853762 0.224351
vt 0.859859 0.195826
vt 0.936149 0.307787
vt 0.853762 0.307787
vt 0.859414 0.281343
vt 0.886734 0.904550
vt 0.881692 0.876220
vt 0.931276 0.877928
vt 0.923576 0.567599
vt 0.829748 0.567599
vt 0.834798 0.543973
vt 0.947590 0.109994
vt 0.853762 0.109994
vt 0.859210 0.084509
vt 0.858259 0.137156
vt 0.853762 0.111486
vt 0.947526 0.114972
vt 0.947590 0.083017
vt 0.853762 0.083017
vt 0.859210 0.057532
vt 0.947526 0.142134
vt 0.951412 0.164318
vt 0.858259 0.164318
vt 0.613759 0.852922
vt 0.377037 0.852922
vt 0.393110 0.761167
vt 0.016819 0.777639
vt 0.000746 0.685883
vt 0.237469 0.685883
vt 0.696188 0.460466
vt 0.604432 0.476798
vt 0.604432 0.239518
vt 0.947519 0.032704
vt 0.951560 0.056040
vt 0.858439 0.056040
vt 0.290595 0.861190
vt 0.372299 0.864385
vt 0.366571 0.891185
vt 0.778247 0.000746
vt 0.778247 0.266319
vt 0.697680 0.251979
vt 0.858501 0.335901
vt 0.853762 0.309279
vt 0.936100 0.312115
vt 0.851974 0.761167
vt 0.851974 0.845096
vt 0.615251 0.845096
vt 0.000746 0.986385
vt 0.236328 0.986384
vt 0.236328 0.990496
vt 0.514517 0.993651
vt 0.250845 0.993650
vt 0.250845 0.989048
vt 0.652584 0.489093
vt 0.572405 0.489093
vt 0.572405 0.487693
vt 0.693710 0.685501
vt 0.773285 0.685501
vt 0.773285 0.686889
vt 0.572529 0.452067
vt 0.490734 0.452070
vt 0.494345 0.384901
vt 0.490734 0.284851
vt 0.574664 0.284848
vt 0.557904 0.363032
vt 0.615251 0.913854
vt 0.615251 0.846588
vt 0.880200 0.846589
vt 0.268181 0.856288
vt 0.347756 0.856288
vt 0.347756 0.857676
vt 0.957382 0.699077
vt 0.693710 0.699077
vt 0.693710 0.694475
vt 0.615251 0.992854
vt 0.850833 0.992853
vt 0.850833 0.996965
vt 0.363760 0.931541
vt 0.284184 0.931541
vt 0.284184 0.930152
vt 0.000746 0.991988
vt 0.236328 0.991988
vt 0.236328 0.996099
vt 0.878923 0.991362
vt 0.615251 0.991361
vt 0.615251 0.986759
vt 0.250845 0.995143
vt 0.486427 0.995142
vt 0.486427 0.999254
vt 0.363760 0.925780
vt 0.284184 0.925780
vt 0.284184 0.924391
vt 0.363760 0.928660
vt 0.284184 0.928660
vt 0.284184 0.927271
vt 0.774777 0.685501
vt 0.854352 0.685501
vt 0.854352 0.686889
vt 0.957382 0.692983
vt 0.693710 0.692983
vt 0.693710 0.688381
vt 0.793901 0.725561
vt 0.873620 0.719343
vt 0.882698 0.759675
vt 0.044653 0.570694
vt 0.000746 0.474391
vt 0.353509 0.474391
vt 0.526795 0.974514
vt 0.566024 0.987557
vt 0.250845 0.987557
vt 0.477228 0.966804
vt 0.377037 0.932690
vt 0.566024 0.932690
vt 0.377037 0.681399
vt 0.377037 0.604614
vt 0.729799 0.604614
vt 0.692218 0.682890
vt 0.692218 0.759675
vt 0.377037 0.759675
vt 0.731322 0.681399
vt 0.731291 0.604614
vt 0.920279 0.604620
vt 0.377069 0.854414
vt 0.566057 0.854414
vt 0.566024 0.931198
vt 0.019536 0.284848
vt 0.334718 0.284848
vt 0.353509 0.472899
vt 0.282693 0.283356
vt 0.000746 0.283356
vt 0.000746 0.000746
vt 0.358263 0.206814
vt 0.375545 0.206820
vt 0.375448 0.489429
vt 0.693710 0.717851
vt 0.693710 0.700569
vt 0.975655 0.700569
vt 0.375448 0.773530
vt 0.358165 0.773530
vt 0.358165 0.490921
vt 0.941954 0.444886
vt 0.941954 0.511441
vt 0.965672 0.761167
vt 0.598589 0.910518
vt 0.951194 0.279852
vt 0.597704 0.414673
vt 0.853465 0.820210
vt 0.936958 0.848285
vt 0.662305 0.479148
vt 0.908375 0.399813
vt 0.909473 0.339223
vt 0.567549 0.909026
vt 0.597704 0.390659
vt 0.942004 0.337393
vt 0.941954 0.446378
vt 0.941954 0.509950
vt 0.274194 0.911200
vt 0.274194 0.909708
vt 0.205323 0.961209
vt 0.897198 0.915347
vt 0.658983 0.603123
vt 0.282693 0.572186
vt 0.615251 0.945614
vt 0.819828 0.964388
vt 0.315224 0.572186
vt 0.594900 0.438687
vt 0.828257 0.009148
vt 0.489243 0.206814
vt 0.598678 0.284848
vt 0.604432 0.016636
vt 0.347756 0.572186
vt 0.602941 0.000746
vt 0.772681 0.536350
vt 0.940906 0.369239
vt 0.853762 0.027545
vt 0.490734 0.486202
vt 0.284184 0.240225
vt 0.915229 0.719343
vt 0.942421 0.570482
vt 0.489243 0.205323
vt 0.829748 0.205805
vt 0.852271 0.412354
vt 0.284184 0.892677
vt 0.284184 0.238734
vt 0.779739 0.293250
vt 0.778247 0.281763
vt 0.251582 0.859698
vt 0.490734 0.489093
vt 0.238960 0.772710
vt 0.941597 0.168849
vt 0.940589 0.254573
vt 0.941597 0.198865
vt 0.941199 0.284160
vt 0.936014 0.904550
vt 0.927941 0.547181
vt 0.952298 0.087970
vt 0.951412 0.137156
vt 0.952298 0.060992
vt 0.853762 0.138648
vt 0.597686 0.761167
vt 0.221396 0.777639
vt 0.696188 0.255408
vt 0.853762 0.029037
vt 0.284184 0.891185
vt 0.697680 0.014699
vt 0.940334 0.335901
vt 0.615251 0.761167
vt 0.000746 0.990496
vt 0.514517 0.989049
vt 0.652584 0.487693
vt 0.693710 0.686889
vt 0.572529 0.368137
vt 0.490734 0.366645
vt 0.880200 0.913855
vt 0.268181 0.857676
vt 0.957382 0.694475
vt 0.615251 0.996965
vt 0.363760 0.930152
vt 0.000746 0.996100
vt 0.878923 0.986760
vt 0.250845 0.999254
vt 0.363760 0.924391
vt 0.363760 0.927271
vt 0.774777 0.686889
vt 0.957382 0.688382
vt 0.693710 0.759675
vt 0.309602 0.570694
vt 0.290075 0.974514
vt 0.556947 0.973022
vt 0.729799 0.681399
vt 0.377037 0.682890
vt 0.920309 0.681404
vt 0.377037 0.931198
vt 0.000746 0.472899
vt 0.282693 0.000746
vt 0.358165 0.489423
vt 0.975655 0.717851
vt 0.375448 0.490921
vn 0.000000 -0.707100 0.707100
vn -0.577300 -0.577300 0.577300
vn -0.700100 -0.700100 -0.140400
vn -0.700100 0.700100 -0.140400
vn -0.577300 0.577300 0.577300
vn 0.000000 0.707100 0.707100
vn 0.700100 0.700100 -0.140400
vn 0.577300 0.577300 0.577300
vn 0.707100 0.000000 0.707100
vn -0.707100 0.000000 0.707100
vn -0.976900 0.000000 -0.213700
vn -0.675500 0.675500 -0.295600
vn -0.513200 0.513200 -0.687900
vn 0.000000 -0.627000 -0.779000
vn -0.513200 -0.513200 -0.687900
vn -0.627000 0.000000 -0.779000
vn -0.994200 0.000000 -0.107500
vn 0.675500 0.675500 -0.295600
vn 0.994200 0.000000 -0.107500
vn 0.000000 0.994200 -0.107500
vn 0.000000 -0.994200 -0.107500
vn -0.675500 -0.675500 -0.295600
vn 0.675500 -0.675500 -0.295600
vn 0.700100 -0.700100 -0.140400
vn 0.000000 0.976900 -0.213700
vn 0.513200 -0.513200 -0.687900
vn 0.000000 0.000000 -1.000000
vn -0.301500 -0.301500 0.904500
vn 0.577300 -0.577300 0.577300
vn 0.000000 -0.915500 0.402300
vn 0.301500 -0.301500 0.904500
vn -0.301500 0.301500 0.904500
vn 0.000000 0.627000 -0.779000
vn 0.627000 0.000000 -0.779000
vn 0.976900 0.000000 -0.213700
vn 0.301500 0.301500 0.904500
vn 0.000000 -0.898100 0.439800
vn -0.742100 0.192800 0.641800
vn 0.513200 0.513200 -0.687900
vn 0.742100 0.192800 0.641800
vn 0.685100 0.198900 0.700700
vn -0.685200 0.198900 0.700600
vn -0.320500 -0.074800 0.944300
vn 0.320500 -0.074800 0.944300
vn -0.383300 -0.072400 0.920800
vn 0.000000 0.000000 1.000000
vn 0.383300 -0.072400 0.920800
vn 0.000000 0.821700 0.569900
vn -0.000400 0.841200 0.540800
vn 0.000400 0.841200 0.540700
vn -0.545200 0.583000 -0.602300
vn -0.608000 0.572200 0.550300
vn 0.608000 0.572200 0.550300
vn 0.545200 0.583000 -0.602300
vn -0.608000 -0.572400 0.550200
vn 0.608000 -0.572400 0.550200
vn 0.545300 -0.582600 -0.602600
vn -0.545300 -0.582600 -0.602600
s 1
f 20/1/1 3/2/2 10/3/3
f 12/4/4 7/5/5 22/6/6
f 11/7/7 6/8/8 26/9/9
f 22/10/6 7/11/5 27/12/10
f 61/13/11 58/14/12 8/15/13
f 19/16/14 4/17/15 42/18/16
f 7/19/5 12/20/4 29/21/17
f 48/22/18 11/23/7 30/24/19
f 46/25/12 12/26/4 24/27/20
f 23/28/21 10/29/3 45/30/22
f 47/31/23 9/32/24 18/33/21
f 48/34/18 50/35/25 17/36/20
f 1/37/26 13/38/14 43/39/27
f 6/40/8 16/41/6 32/42/28
f 17/43/20 16/44/6 6/45/8
f 2/46/29 14/47/1 18/48/21
f 18/49/21 23/50/21 51/51/30
f 52/52/25 24/53/20 17/54/20
f 13/55/14 19/56/14 44/57/27
f 16/58/6 22/59/6 34/60/31
f 24/61/20 22/62/6 16/63/6
f 14/64/1 20/65/1 23/66/21
f 37/67/32 99/68/5 100/69/8
f 31/70/27 33/71/27 21/72/33
f 26/73/9 32/74/28 37/75/32
f 25/76/34 31/77/27 15/78/33
f 53/79/35 30/80/19 36/81/19
f 27/82/10 29/83/17 35/84/17
f 33/85/27 28/86/16 8/87/13
f 62/88/11 61/89/11 28/90/16
f 34/91/31 27/92/10 41/93/10
f 30/94/19 26/95/9 40/96/9
f 36/97/19 40/98/9 2/99/29
f 38/100/36 41/101/10 3/102/2
f 62/103/11 42/104/16 4/105/15
f 41/106/10 35/107/17 10/108/3
f 47/109/23 56/110/35 36/111/19
f 40/112/9 37/113/32 14/114/1
f 37/115/32 38/116/36 20/117/1
f 43/118/27 44/119/27 33/120/27
f 39/121/34 43/122/27 31/123/27
f 33/124/27 44/125/27 42/126/16
f 63/127/23 68/128/35 56/129/35
f 35/130/17 55/131/11 45/132/22
f 35/133/17 29/134/17 54/135/11
f 67/136/35 53/137/35 56/138/35
f 66/139/25 52/140/25 50/141/25
f 51/142/30 60/143/37 72/144/38
f 64/145/18 65/146/25 50/147/25
f 63/148/23 47/149/23 49/150/30
f 51/151/30 45/152/22 57/153/22
f 58/154/12 46/155/12 52/156/25
f 64/157/18 48/158/18 53/159/35
f 29/160/17 12/161/4 46/162/12
f 5/163/39 64/164/18 67/165/35
f 8/166/13 58/167/12 66/168/25
f 60/169/37 57/170/22 4/171/15
f 1/172/26 63/173/23 59/174/37
f 5/175/39 15/176/33 65/177/25
f 59/178/37 60/179/37 19/180/14
f 21/181/33 66/182/25 65/183/25
f 25/184/34 67/185/35 68/186/35
f 1/187/26 39/188/34 68/189/35
f 55/190/11 62/191/11 57/192/22
f 55/193/11 54/194/11 61/195/11
f 54/196/11 46/197/12 58/198/12
f 71/199/40 75/200/41 76/201/42
f 60/202/37 59/203/37 71/204/40
f 49/205/30 51/206/30 70/207/43
f 59/208/37 49/209/30 69/210/44
f 74/211/45 76/212/42 80/213/46
f 71/214/40 69/215/44 73/216/47
f 72/217/38 76/218/42 74/219/45
f 70/220/43 74/221/45 73/222/47
f 78/223/46 80/224/46 84/225/46
f 73/226/47 74/227/45 78/228/46
f 76/229/42 75/230/41 79/231/46
f 75/232/41 73/233/47 77/234/46
f 84/235/46 83/236/46 87/237/48
f 77/238/46 78/239/46 82/240/46
f 80/241/46 79/242/46 83/243/46
f 79/244/46 77/245/46 81/246/46
f 83/247/46 81/248/46 85/249/49
f 82/250/46 84/251/46 88/252/48
f 81/253/46 82/254/46 86/255/50
f 86/256/50 88/257/48 92/258/51
f 86/259/50 90/260/52 89/261/53
f 87/262/48 91/263/54 92/264/51
f 85/265/49 89/266/53 91/267/54
f 90/268/52 94/269/55 93/270/56
f 91/271/54 95/272/57 96/273/58
f 89/274/53 93/275/56 95/276/57
f 90/277/52 92/278/51 96/279/58
f 96/280/58 95/281/57 93/282/56
f 97/283/2 98/284/29 100/285/8
f 38/286/36 100/287/8 98/288/29
f 34/289/31 98/290/29 97/291/2
f 32/292/28 97/293/2 99/294/5
f 23/295/21 20/1/1 10/3/3
f 24/296/20 12/4/4 22/6/6
f 30/297/19 11/7/7 26/9/9
f 34/298/31 22/10/6 27/12/10
f 28/299/16 61/13/11 8/15/13
f 44/300/27 19/16/14 42/18/16
f 27/301/10 7/19/5 29/21/17
f 53/302/35 48/22/18 30/24/19
f 52/303/25 46/25/12 24/27/20
f 51/304/30 23/28/21 45/30/22
f 49/305/30 47/31/23 18/33/21
f 11/306/7 48/34/18 17/36/20
f 39/307/34 1/37/26 43/39/27
f 26/308/9 6/40/8 32/42/28
f 11/309/7 17/43/20 6/45/8
f 9/310/24 2/46/29 18/48/21
f 49/311/30 18/49/21 51/51/30
f 50/312/25 52/52/25 17/54/20
f 43/313/27 13/55/14 44/57/27
f 32/314/28 16/58/6 34/60/31
f 17/315/20 24/61/20 16/63/6
f 18/316/21 14/64/1 23/66/21
f 38/317/36 37/67/32 100/69/8
f 15/318/33 31/70/27 21/72/33
f 40/319/9 26/73/9 37/75/32
f 5/320/39 25/76/34 15/78/33
f 56/321/35 53/79/35 36/81/19
f 41/322/10 27/82/10 35/84/17
f 21/323/33 33/85/27 8/87/13
f 42/324/16 62/88/11 28/90/16
f 38/325/36 34/91/31 41/93/10
f 36/326/19 30/94/19 40/96/9
f 9/327/24 36/97/19 2/99/29
f 20/328/1 38/100/36 3/102/2
f 57/329/22 62/103/11 4/105/15
f 3/330/2 41/106/10 10/108/3
f 9/331/24 47/109/23 36/111/19
f 2/332/29 40/112/9 14/114/1
f 14/333/1 37/115/32 20/117/1
f 31/334/27 43/118/27 33/120/27
f 25/335/34 39/121/34 31/123/27
f 28/336/16 33/124/27 42/126/16
f 47/337/23 63/127/23 56/129/35
f 10/338/3 35/130/17 45/132/22
f 55/339/11 35/133/17 54/135/11
f 68/340/35 67/136/35 56/138/35
f 65/341/25 66/139/25 50/141/25
f 70/342/43 51/142/30 72/144/38
f 48/343/18 64/145/18 50/147/25
f 59/344/37 63/148/23 49/150/30
f 60/345/37 51/151/30 57/153/22
f 66/346/25 58/154/12 52/156/25
f 67/347/35 64/157/18 53/159/35
f 54/348/11 29/160/17 46/162/12
f 25/349/34 5/163/39 67/165/35
f 21/350/33 8/166/13 66/168/25
f 19/351/14 60/169/37 4/171/15
f 13/352/14 1/172/26 59/174/37
f 64/353/18 5/175/39 65/177/25
f 13/354/14 59/178/37 19/180/14
f 15/355/33 21/181/33 65/183/25
f 39/356/34 25/184/34 68/186/35
f 63/357/23 1/187/26 68/189/35
f 45/358/22 55/190/11 57/192/22
f 62/359/11 55/193/11 61/195/11
f 61/360/11 54/196/11 58/198/12
f 72/361/38 71/199/40 76/201/42
f 72/362/38 60/202/37 71/204/40
f 69/363/44 49/205/30 70/207/43
f 71/364/40 59/208/37 69/210/44
f 78/365/46 74/211/45 80/213/46
f 75/366/41 71/214/40 73/216/47
f 70/367/43 72/217/38 74/219/45
f 69/368/44 70/220/43 73/222/47
f 82/369/46 78/223/46 84/225/46
f 77/370/46 73/226/47 78/228/46
f 80/371/46 76/229/42 79/231/46
f 79/372/46 75/232/41 77/234/46
f 88/373/48 84/235/46 87/237/48
f 81/374/46 77/238/46 82/240/46
f 84/375/46 80/241/46 83/243/46
f 83/376/46 79/244/46 81/246/46
f 87/377/48 83/247/46 85/249/49
f 86/378/50 82/250/46 88/252/48
f 85/379/49 81/253/46 86/255/50
f 90/380/52 86/256/50 92/258/51
f 85/381/49 86/259/50 89/261/53
f 88/382/48 87/262/48 92/264/51
f 87/383/48 85/265/49 91/267/54
f 89/384/53 90/268/52 93/270/56
f 92/385/51 91/271/54 96/273/58
f 91/386/54 89/274/53 95/276/57
f 94/387/55 90/277/52 96/279/58
f 94/388/55 96/280/58 93/282/56
f 99/389/5 97/283/2 100/285/8
f 34/390/31 38/286/36 98/288/29
f 32/391/28 34/289/31 97/291/2
f 37/392/32 32/292/28 99/294/5
