# Blender v2.75 (sub 0) OBJ File: 'door.blend'
# www.blender.org
o Cube
v 1.361067 -1.000000 0.805336
v 1.361067 -1.000000 1.000000
v -1.000000 -1.000000 1.000000
v -1.000000 -1.000000 0.805336
v 1.361068 3.024555 0.805336
v 1.361066 3.024555 1.000001
v -1.000000 3.024555 1.000000
v -1.000000 3.024555 0.805336
v 1.361068 2.871837 0.805336
v 1.361066 2.871837 1.000001
v -1.000000 2.871837 1.000000
v -1.000000 2.871837 0.805336
v 1.361067 -0.857259 0.805336
v 1.361067 -0.857259 1.000000
v -1.000000 -0.857259 1.000000
v -1.000000 -0.857259 0.805336
v -0.830074 -1.000000 0.805336
v -0.830075 -1.000000 1.000000
v -0.830075 3.024555 0.805336
v -0.830075 3.024555 1.000000
v -0.830075 2.871837 0.805336
v -0.830075 2.871837 1.000000
v -0.830075 -0.857259 1.000000
v -0.830074 -0.857259 0.805336
v 1.209647 -1.000000 0.805336
v 1.209647 -1.000000 1.000000
v 1.209647 3.024555 0.805336
v 1.209646 3.024555 1.000000
v 1.209647 2.871837 0.805336
v 1.209646 2.871837 1.000000
v 1.209647 -0.857259 1.000000
v 1.209647 -0.857259 0.805336
v 1.361067 1.087966 0.805336
v 1.361067 1.087966 1.000000
v -1.000000 1.087966 1.000000
v -1.000000 1.087966 0.805336
v -0.830074 1.087966 0.805336
v -0.830075 1.087966 1.000000
v 1.209646 1.087966 1.000000
v 1.209647 1.087966 0.805336
v -0.830075 0.286461 1.000000
v 1.209647 0.286461 1.000000
v 1.361067 0.286461 0.805336
v 1.361067 0.286461 1.000000
v -1.000000 0.286461 1.000000
v -1.000000 0.286461 0.805336
v -0.830074 0.286461 0.805336
v 1.209647 0.286461 0.805336
v 1.209646 2.871837 1.000000
v -0.830075 2.871837 1.000000
v -0.830075 1.087966 1.000000
v 1.209646 1.087966 1.000000
v 1.209646 1.087966 1.200426
v -0.830075 1.087966 1.200426
v -0.830075 0.286461 1.200426
v 1.209647 0.286461 1.200426
v -0.830075 -1.000000 1.000000
v -1.000000 -1.000000 1.000000
v 1.361066 2.871837 1.000001
v 1.361066 3.024555 1.000001
v -1.000000 2.871837 1.000000
v -1.000000 3.024555 1.000000
v -0.830075 3.024555 1.000000
v 1.361067 1.087966 1.000000
v -1.000000 1.087966 1.000000
v -0.830075 2.871837 1.000000
v 1.361067 -1.000000 1.000000
v 1.361067 -0.857259 1.000000
v -1.000000 -0.857259 1.000000
v -0.830075 -0.857259 1.000000
v 1.209647 -1.000000 1.000000
v 1.209646 3.024555 1.000000
v 1.209646 2.871837 1.000000
v 1.209647 -0.857259 1.000000
v -0.830075 0.286461 1.000000
v 1.209647 0.286461 1.000000
v 1.361067 0.286461 1.000000
v -1.000000 0.286461 1.000000
v -0.830075 1.087966 1.000000
v 1.209646 1.087966 1.000000
vt 0.854483 0.463845
vt 0.854483 0.431369
vt 0.891687 0.431369
vt 0.886959 0.393022
vt 0.886959 0.430225
vt 0.854483 0.430225
vt 0.891687 0.391878
vt 0.854483 0.391878
vt 0.854483 0.362691
vt 0.964039 0.464989
vt 0.964039 0.615164
vt 0.961418 0.615164
vt 0.000572 0.875252
vt 0.037776 0.875252
vt 0.037776 0.904439
vt 0.317380 0.902532
vt 0.284904 0.902532
vt 0.284904 0.875252
vt 0.216521 0.904439
vt 0.184046 0.904439
vt 0.184046 0.875252
vt 0.819720 0.341502
vt 0.782516 0.341502
vt 0.782516 0.000572
vt 0.786100 0.684719
vt 0.786100 0.834917
vt 0.783479 0.834917
vt 0.819720 0.683576
vt 0.782516 0.683576
vt 0.782516 0.342646
vt 0.182902 0.902532
vt 0.145698 0.902532
vt 0.145698 0.875252
vt 0.382747 0.866290
vt 0.000572 0.866292
vt 0.000572 0.859622
vt 0.107350 0.875252
vt 0.144554 0.875252
vt 0.144554 0.902532
vt 0.787244 0.684719
vt 0.819720 0.684719
vt 0.819720 0.903305
vt 0.781372 0.438888
vt 0.391544 0.438888
vt 0.391544 0.220302
vt 0.997451 0.309237
vt 0.997450 0.523532
vt 0.993710 0.523532
vt 0.965684 0.797801
vt 0.965684 0.463563
vt 0.971517 0.463563
vt 0.390400 0.830052
vt 0.000572 0.830052
vt 0.000572 0.800865
vt 0.781372 0.845744
vt 0.391544 0.845744
vt 0.391544 0.818464
vt 0.547198 0.878149
vt 0.575569 0.878149
vt 0.575569 0.878644
vt 0.000572 0.761373
vt 0.000572 0.724170
vt 0.390400 0.724169
vt 0.390399 0.799721
vt 0.000572 0.799721
vt 0.000572 0.762517
vt 0.069002 0.904191
vt 0.069002 0.875252
vt 0.106206 0.875252
vt 0.067859 0.875252
vt 0.067859 0.912456
vt 0.038919 0.912456
vt 0.776532 0.873633
vt 0.776532 0.846888
vt 0.776999 0.846888
vt 0.420483 0.905429
vt 0.391544 0.905429
vt 0.391544 0.878149
vt 0.348607 0.875252
vt 0.377546 0.875252
vt 0.377546 0.904439
vt 0.391544 0.846888
vt 0.773777 0.846888
vt 0.773777 0.853559
vt 0.986617 0.643526
vt 0.986732 0.309237
vt 0.992566 0.309239
vt 0.888103 0.464989
vt 0.917042 0.464989
vt 0.917042 0.683575
vt 0.884566 0.000572
vt 0.913506 0.000572
vt 0.913506 0.341502
vt 0.979639 0.797852
vt 0.979639 0.463563
vt 0.985473 0.463563
vt 0.914649 0.154911
vt 0.952955 0.154911
vt 0.952955 0.308093
vt 0.390400 0.341502
vt 0.000572 0.341502
vt 0.000572 0.000572
vt 0.820864 0.342646
vt 0.853340 0.342646
vt 0.853340 0.683575
vt 0.951853 0.462419
vt 0.914649 0.462419
vt 0.914649 0.309237
vt 0.775388 0.846888
vt 0.775388 0.873637
vt 0.774921 0.873637
vt 0.955390 0.618171
vt 0.918186 0.618171
vt 0.918186 0.464989
vt 0.896415 0.903305
vt 0.859211 0.903305
vt 0.859211 0.684719
vt 0.783957 0.864675
vt 0.783957 0.836061
vt 0.784457 0.836061
vt 0.858067 0.903305
vt 0.820863 0.903305
vt 0.820864 0.684719
vt 0.781372 0.219158
vt 0.391544 0.219158
vt 0.391544 0.000572
vt 0.989118 0.214867
vt 0.989119 0.000572
vt 0.992859 0.000572
vt 0.954098 0.154911
vt 0.983038 0.154911
vt 0.983038 0.308093
vt 0.781372 0.593214
vt 0.391544 0.593214
vt 0.391544 0.440032
vt 0.927642 0.684719
vt 0.960118 0.684719
vt 0.960118 0.837901
vt 0.390400 0.683576
vt 0.000572 0.683576
vt 0.000572 0.342646
vt 0.000572 0.867438
vt 0.382747 0.867436
vt 0.382747 0.874106
vt 0.773719 0.869188
vt 0.391544 0.869191
vt 0.391544 0.862521
vt 0.992450 0.644671
vt 0.992451 0.978909
vt 0.986617 0.978909
vt 0.781372 0.747540
vt 0.391544 0.747540
vt 0.391544 0.594358
vt 0.781372 0.748684
vt 0.781372 0.786989
vt 0.391544 0.786989
vt 0.390399 0.723026
vt 0.000572 0.723026
vt 0.000572 0.684721
vt 0.953007 0.000585
vt 0.952955 0.153767
vt 0.914649 0.153754
vt 0.250141 0.904439
vt 0.217665 0.904439
vt 0.217665 0.875252
vt 0.853340 0.341501
vt 0.820864 0.341501
vt 0.820863 0.000572
vt 0.283761 0.902532
vt 0.251285 0.902532
vt 0.251285 0.875252
vt 0.390400 0.858476
vt 0.000572 0.858477
vt 0.000572 0.831196
vt 0.781371 0.817320
vt 0.391544 0.817320
vt 0.391544 0.788133
vt 0.347463 0.904439
vt 0.318524 0.904439
vt 0.318524 0.875252
vt 0.883423 0.341502
vt 0.854483 0.341502
vt 0.854483 0.000572
vt 0.450566 0.905429
vt 0.421627 0.905429
vt 0.421627 0.878149
vt 0.983090 0.153754
vt 0.954151 0.153754
vt 0.954151 0.000572
vt 0.985473 0.462419
vt 0.952997 0.462419
vt 0.952997 0.309237
vt 0.886959 0.683575
vt 0.854483 0.683575
vt 0.854483 0.464989
vt 0.926498 0.903305
vt 0.897559 0.903305
vt 0.897559 0.684719
vt 0.546054 0.878654
vt 0.517674 0.878644
vt 0.517674 0.878149
vt 0.516530 0.878704
vt 0.484692 0.878704
vt 0.484692 0.878149
vt 0.961262 0.834894
vt 0.961262 0.684719
vt 0.963882 0.684719
vt 0.965684 0.949120
vt 0.965684 0.798945
vt 0.968305 0.798945
vt 0.451710 0.878149
vt 0.483548 0.878149
vt 0.483548 0.878704
vt 0.391544 0.854705
vt 0.773719 0.854703
vt 0.773719 0.861373
vt 0.786100 0.836061
vt 0.786100 0.864675
vt 0.785600 0.864675
vt 0.773719 0.877004
vt 0.391544 0.877005
vt 0.391544 0.870335
vt 0.960274 0.464989
vt 0.960274 0.679284
vt 0.956534 0.679284
vt 0.984234 0.214867
vt 0.984235 0.000572
vt 0.987975 0.000572
vt 0.999428 0.644671
vt 0.999428 0.978909
vt 0.993595 0.978909
vt 0.978495 0.463563
vt 0.978495 0.797801
vt 0.972662 0.797801
vt 0.891687 0.463845
vt 0.854483 0.393022
vt 0.891687 0.362691
vt 0.961418 0.464989
vt 0.000572 0.904439
vt 0.317380 0.875252
vt 0.216521 0.875252
vt 0.819720 0.000572
vt 0.783479 0.684719
vt 0.819720 0.342646
vt 0.182902 0.875252
vt 0.382747 0.859620
vt 0.107350 0.902532
vt 0.787244 0.903305
vt 0.781372 0.220302
vt 0.993711 0.309237
vt 0.971518 0.797801
vt 0.390400 0.800865
vt 0.781372 0.818464
vt 0.547202 0.878644
vt 0.390400 0.761373
vt 0.390399 0.762517
vt 0.106206 0.904191
vt 0.038920 0.875252
vt 0.776999 0.873633
vt 0.420483 0.878149
vt 0.348607 0.904439
vt 0.391544 0.853559
vt 0.992451 0.643528
vt 0.888103 0.683575
vt 0.884567 0.341502
vt 0.985473 0.797852
vt 0.914649 0.308093
vt 0.390400 0.000572
vt 0.820863 0.683575
vt 0.951853 0.309237
vt 0.774921 0.846888
vt 0.955390 0.464989
vt 0.896415 0.684719
vt 0.784456 0.864675
vt 0.858067 0.684719
vt 0.781372 0.000572
vt 0.992858 0.214867
vt 0.954098 0.308093
vt 0.781372 0.440031
vt 0.927642 0.837901
vt 0.390400 0.342646
vt 0.000572 0.874108
vt 0.773719 0.862519
vt 0.986617 0.644671
vt 0.781372 0.594358
vt 0.391544 0.748684
vt 0.390399 0.684720
vt 0.914702 0.000572
vt 0.250141 0.875252
vt 0.853340 0.000572
vt 0.283761 0.875252
vt 0.390400 0.831196
vt 0.781371 0.788133
vt 0.347463 0.875252
vt 0.883423 0.000572
vt 0.450566 0.878149
vt 0.983090 0.000572
vt 0.985473 0.309237
vt 0.886959 0.464989
vt 0.926498 0.684719
vt 0.546050 0.878159
vt 0.516530 0.878149
vt 0.963883 0.834894
vt 0.968305 0.949120
vt 0.451710 0.878704
vt 0.391544 0.861375
vt 0.785601 0.836061
vt 0.773719 0.870334
vt 0.956534 0.464989
vt 0.987974 0.214867
vt 0.993594 0.644671
vt 0.972661 0.463563
vn 0.000000 -0.707100 0.707100
vn -0.408200 -0.408200 0.816500
vn -0.577300 -0.577300 -0.577300
vn -0.577300 0.577300 -0.577300
vn -0.408200 0.408200 0.816500
vn 0.000000 0.707100 0.707100
vn 0.577300 0.577300 -0.577300
vn 0.408200 0.408200 0.816500
vn 0.707100 0.000000 0.707100
vn -0.301500 -0.301500 0.904500
vn -0.235700 0.235700 0.942800
vn 0.000000 0.000000 1.000000
vn -0.707100 0.000000 -0.707100
vn 0.000000 -0.707100 -0.707100
vn 0.000000 0.000000 -1.000000
vn -0.707100 0.000000 0.707100
vn 0.707100 0.000000 -0.707100
vn 0.408200 -0.408200 0.816500
vn 0.000000 0.707100 -0.707100
vn 0.000000 -0.707000 0.707100
vn 0.577300 -0.577300 -0.577300
vn 0.235700 0.235700 0.942800
vn -0.577300 -0.577300 0.577300
vn -0.577300 0.577300 0.577300
vn 0.301500 -0.301500 0.904500
vn 0.577300 0.577300 0.577300
vn 0.577300 -0.577300 0.577300
s 1
f 18/1/1 3/2/2 4/3/3
f 8/4/4 7/5/5 20/6/6
f 5/7/7 6/8/8 10/9/9
f 41/10/10 38/11/11 79/12/12
f 7/13/5 8/14/4 12/15/13
f 17/16/14 4/17/3 16/18/13
f 21/19/15 12/20/13 8/21/4
f 11/22/16 12/23/13 36/24/13
f 44/25/9 34/26/9 64/27/12
f 9/28/17 10/29/9 34/30/9
f 13/31/17 14/32/9 2/33/18
f 28/34/6 20/35/6 63/36/12
f 15/37/16 16/38/13 4/39/3
f 24/40/15 16/41/13 46/42/13
f 32/43/15 24/44/15 47/45/15
f 23/46/12 41/47/10 75/48/12
f 22/49/12 38/50/11 51/51/12
f 29/52/15 21/53/15 19/54/19
f 25/55/14 17/56/14 24/57/15
f 26/58/20 2/59/18 67/60/12
f 19/61/19 20/62/6 28/63/6
f 26/64/20 18/65/1 17/66/14
f 2/67/18 26/68/20 25/69/14
f 27/70/19 28/71/6 6/72/8
f 15/73/16 3/74/2 58/75/12
f 1/76/21 25/77/14 32/78/15
f 9/79/17 29/80/15 27/81/19
f 18/82/1 26/83/20 71/84/12
f 30/85/12 39/86/22 80/87/12
f 13/88/17 32/89/15 48/90/15
f 33/91/17 40/92/15 29/93/15
f 11/94/16 35/95/16 65/96/12
f 41/97/10 55/98/23 54/99/24
f 40/100/15 37/101/15 21/102/15
f 37/103/15 36/104/13 12/105/13
f 33/106/17 34/107/9 44/108/9
f 2/109/18 14/110/9 68/111/12
f 35/112/16 36/113/13 46/114/13
f 45/115/16 46/116/13 16/117/13
f 7/118/5 11/119/16 61/120/12
f 43/121/17 44/122/9 14/123/9
f 42/124/25 41/125/10 23/126/12
f 45/127/16 15/128/16 69/129/12
f 43/130/17 48/131/15 40/132/15
f 48/133/15 47/134/15 37/135/15
f 47/136/15 46/137/13 36/138/13
f 49/139/12 50/140/12 51/141/12
f 38/142/11 39/143/22 52/144/12
f 30/145/12 22/146/12 50/147/12
f 39/148/22 30/149/12 49/150/12
f 53/151/26 54/152/24 55/153/23
f 42/154/25 56/155/27 55/156/23
f 39/157/22 38/158/11 54/159/24
f 42/160/25 39/161/22 53/162/26
f 63/163/12 62/164/12 61/165/12
f 66/166/12 61/167/12 65/168/12
f 70/169/12 69/170/12 58/171/12
f 74/172/12 70/173/12 57/174/12
f 72/175/12 63/176/12 66/177/12
f 60/178/12 72/179/12 73/180/12
f 59/181/12 73/182/12 80/183/12
f 68/184/12 74/185/12 71/186/12
f 64/187/12 80/188/12 76/189/12
f 79/190/12 65/191/12 78/192/12
f 75/193/12 78/194/12 69/195/12
f 77/196/12 76/197/12 74/198/12
f 6/199/8 28/200/6 72/201/12
f 20/202/6 7/203/5 62/204/12
f 35/205/16 45/206/16 78/207/12
f 39/208/22 42/209/25 76/210/12
f 3/211/2 18/212/1 57/213/12
f 22/214/12 30/215/12 73/216/12
f 10/217/9 6/218/8 60/219/12
f 31/220/12 23/221/12 70/222/12
f 14/223/9 44/224/9 77/225/12
f 42/226/25 31/227/12 74/228/12
f 34/229/9 10/230/9 59/231/12
f 38/232/11 22/233/12 66/234/12
f 17/235/14 18/1/1 4/3/3
f 19/236/19 8/4/4 20/6/6
f 9/237/17 5/7/7 10/9/9
f 75/238/12 41/10/10 79/12/12
f 11/239/16 7/13/5 12/15/13
f 24/240/15 17/16/14 16/18/13
f 19/241/19 21/19/15 8/21/4
f 35/242/16 11/22/16 36/24/13
f 77/243/12 44/25/9 64/27/12
f 33/244/17 9/28/17 34/30/9
f 1/245/21 13/31/17 2/33/18
f 72/246/12 28/34/6 63/36/12
f 3/247/2 15/37/16 4/39/3
f 47/248/15 24/40/15 46/42/13
f 48/249/15 32/43/15 47/45/15
f 70/250/12 23/46/12 75/48/12
f 50/251/12 22/49/12 51/51/12
f 27/252/19 29/52/15 19/54/19
f 32/253/15 25/55/14 24/57/15
f 71/254/12 26/58/20 67/60/12
f 27/255/19 19/61/19 28/63/6
f 25/256/14 26/64/20 17/66/14
f 1/257/21 2/67/18 25/69/14
f 5/258/7 27/70/19 6/72/8
f 69/259/12 15/73/16 58/75/12
f 13/260/17 1/76/21 32/78/15
f 5/261/7 9/79/17 27/81/19
f 57/262/12 18/82/1 71/84/12
f 73/263/12 30/85/12 80/87/12
f 43/264/17 13/88/17 48/90/15
f 9/265/17 33/91/17 29/93/15
f 61/266/12 11/94/16 65/96/12
f 38/267/11 41/97/10 54/99/24
f 29/268/15 40/100/15 21/102/15
f 21/269/15 37/103/15 12/105/13
f 43/270/17 33/106/17 44/108/9
f 67/271/12 2/109/18 68/111/12
f 45/272/16 35/112/16 46/114/13
f 15/273/16 45/115/16 16/117/13
f 62/274/12 7/118/5 61/120/12
f 13/275/17 43/121/17 14/123/9
f 31/276/12 42/124/25 23/126/12
f 78/277/12 45/127/16 69/129/12
f 33/278/17 43/130/17 40/132/15
f 40/279/15 48/133/15 37/135/15
f 37/280/15 47/136/15 36/138/13
f 52/281/12 49/139/12 51/141/12
f 51/282/12 38/142/11 52/144/12
f 49/283/12 30/145/12 50/147/12
f 52/284/12 39/148/22 49/150/12
f 56/285/27 53/151/26 55/153/23
f 41/286/10 42/154/25 55/156/23
f 53/287/26 39/157/22 54/159/24
f 56/288/27 42/160/25 53/162/26
f 66/289/12 63/163/12 61/165/12
f 79/290/12 66/166/12 65/168/12
f 57/291/12 70/169/12 58/171/12
f 71/292/12 74/172/12 57/174/12
f 73/293/12 72/175/12 66/177/12
f 59/294/12 60/178/12 73/180/12
f 64/295/12 59/181/12 80/183/12
f 67/296/12 68/184/12 71/186/12
f 77/297/12 64/187/12 76/189/12
f 75/298/12 79/190/12 78/192/12
f 70/299/12 75/193/12 69/195/12
f 68/300/12 77/196/12 74/198/12
f 60/301/12 6/199/8 72/201/12
f 63/302/12 20/202/6 62/204/12
f 65/303/12 35/205/16 78/207/12
f 80/304/12 39/208/22 76/210/12
f 58/305/12 3/211/2 57/213/12
f 66/306/12 22/214/12 73/216/12
f 59/307/12 10/217/9 60/219/12
f 74/308/12 31/220/12 70/222/12
f 68/309/12 14/223/9 77/225/12
f 76/310/12 42/226/25 74/228/12
f 64/311/12 34/229/9 59/231/12
f 79/312/12 38/232/11 66/234/12
