# Blender v2.75 (sub 0) OBJ File: 'free_standing_whiteboard.blend'
# www.blender.org
o Cube
v 5.997280 -1.000000 -1.000000
v 5.997280 -1.000000 -0.723868
v 5.997280 -1.000000 -1.000000
v 5.997280 -1.000000 -0.723868
v 5.997280 4.990076 -0.999999
v 5.997279 4.990076 -0.723867
v 5.997280 4.990076 -0.999999
v 5.997279 4.990076 -0.723867
v 5.997279 4.666287 -0.723867
v 5.997280 -0.676405 -1.000000
v 5.674845 -1.000000 -1.000000
v 5.674845 -1.000000 -0.723868
v 5.674846 4.990076 -0.999999
v 5.674845 4.990076 -0.723867
v 5.674845 4.666287 -0.723867
v 5.674845 -0.676405 -1.000000
v 5.997280 -0.676212 -0.723868
v 5.674845 -0.676212 -0.723868
v 5.674845 4.666287 -0.852498
v 5.674845 -0.676212 -0.852498
v 5.997280 -4.615420 -1.000000
v 5.997280 -4.615420 -0.723868
v 5.674845 -4.615420 -1.000000
v 5.674845 -4.615420 -0.723868
v 5.674845 -4.330433 -0.723868
v 5.997280 -4.330433 -0.723868
v 5.674845 -4.330433 -1.000000
v 5.997280 -4.330433 -1.000000
v 5.997280 -4.615420 0.165826
v 5.674845 -4.615420 0.165826
v 5.674845 -4.330433 0.165826
v 5.997280 -4.330433 0.165826
v 5.997280 -4.615420 -1.857064
v 5.674845 -4.615420 -1.857064
v 5.674845 -4.330433 -1.857064
v 5.997280 -4.330433 -1.857064
v -5.997280 -1.000000 -1.000000
v -5.997280 -1.000000 -0.723868
v -5.997280 -1.000000 -1.000000
v -5.997280 -1.000000 -0.723868
v -5.997280 4.990076 -0.999999
v -5.997279 4.990076 -0.723867
v -5.997280 4.990076 -0.999999
v -5.997279 4.990076 -0.723867
v 0.000000 -1.000000 -1.000000
v 0.000000 -1.000000 -0.723868
v 0.000000 4.990076 -1.000000
v 0.000000 4.990076 -0.723868
v -5.997279 4.666287 -0.723867
v 0.000000 4.666287 -0.723868
v -5.997280 -0.676405 -1.000000
v 0.000000 -0.676405 -1.000000
v -5.674845 -1.000000 -1.000000
v -5.674845 -1.000000 -0.723868
v -5.674846 4.990076 -0.999999
v -5.674845 4.990076 -0.723867
v -5.674845 4.666287 -0.723867
v -5.674845 -0.676405 -1.000000
v 0.000000 -0.676212 -0.723868
v -5.997280 -0.676212 -0.723868
v -5.674845 -0.676212 -0.723868
v -5.674845 4.666287 -0.852498
v 0.000000 4.666287 -0.852498
v 0.000000 -0.676212 -0.852498
v -5.674845 -0.676212 -0.852498
v -5.997280 -4.615420 -1.000000
v -5.997280 -4.615420 -0.723868
v -5.674845 -4.615420 -1.000000
v -5.674845 -4.615420 -0.723868
v -5.674845 -4.330433 -0.723868
v -5.997280 -4.330433 -0.723868
v -5.674845 -4.330433 -1.000000
v -5.997280 -4.330433 -1.000000
v -5.997280 -4.615420 0.165826
v -5.674845 -4.615420 0.165826
v -5.674845 -4.330433 0.165826
v -5.997280 -4.330433 0.165826
v -5.997280 -4.615420 -1.857064
v -5.674845 -4.615420 -1.857064
v -5.674845 -4.330433 -1.857064
v -5.997280 -4.330433 -1.857064
vn 1.000000 0.000000 0.000000
vn -0.301500 -0.301500 -0.904500
vn 0.000000 -0.707100 -0.707100
vn 0.000000 0.000000 -1.000000
vn 0.000000 0.707100 0.707100
vn 0.000000 -0.707100 0.707100
vn 0.000000 0.707100 -0.707100
vn -0.301500 -0.301500 0.904500
vn -0.577300 -0.577300 0.577300
vn 0.000000 0.000000 1.000000
vn -0.301500 0.301500 0.904500
vn -0.707100 -0.707100 0.000000
vn -0.577300 0.577300 0.577300
vn 0.447200 0.000000 -0.894400
vn 0.707100 -0.707100 0.000000
vn -0.904500 0.301500 -0.301500
vn 0.904500 0.301500 0.301500
vn -0.577300 -0.577300 -0.577300
vn 0.577300 -0.577300 -0.577300
vn 0.904500 0.301500 -0.301500
vn 0.447200 0.000000 0.894400
vn -0.904500 0.301500 0.301500
vn 0.577300 -0.577300 0.577300
vn 0.577300 0.577300 0.577300
vn 0.577300 0.577300 -0.577300
vn -0.577300 0.577300 -0.577300
vn -1.000000 0.000000 0.000000
vn 0.301500 -0.301500 -0.904500
vn 0.301500 -0.301500 0.904500
vn 0.301500 0.301500 0.904500
vn -0.447200 0.000000 -0.894400
vn -0.447200 0.000000 0.894400
s 1
f 7//1 8//1 4//1
f 11//2 45//3 52//4
f 14//5 48//5 50//6
f 47//7 48//5 14//5
f 12//8 46//6 45//3
f 50//6 63//6 19//9
f 16//4 52//4 47//7
f 10//4 16//4 13//7
f 9//10 15//8 18//11
f 24//12 30//9 31//13
f 13//7 14//5 6//5
f 6//5 14//5 15//8
f 1//14 11//2 16//4
f 17//10 18//11 12//8
f 18//11 59//5 46//6
f 20//13 19//9 63//6
f 18//11 20//13 64//5
f 15//8 19//9 20//13
f 22//15 24//12 23//12
f 27//16 23//12 24//12
f 26//17 22//15 21//15
f 23//12 34//18 33//19
f 1//14 28//20 27//16
f 2//21 26//17 28//20
f 11//2 27//16 25//22
f 12//8 25//22 26//17
f 31//13 30//9 29//23
f 25//22 31//13 32//24
f 22//15 29//23 30//9
f 26//17 32//24 29//23
f 36//25 33//19 34//18
f 28//20 36//25 35//26
f 27//16 35//26 34//18
f 21//15 33//19 36//25
f 40//27 44//27 43//27
f 52//4 45//3 53//28
f 50//6 48//5 56//5
f 56//5 48//5 47//7
f 45//3 46//6 54//29
f 62//23 63//6 50//6
f 47//7 52//4 58//4
f 55//7 58//4 51//4
f 61//30 57//29 49//10
f 76//24 75//23 69//15
f 42//5 56//5 55//7
f 57//29 56//5 42//5
f 58//4 53//28 37//31
f 54//29 61//30 60//10
f 46//6 59//5 61//30
f 64//5 63//6 62//23
f 64//5 65//24 61//30
f 65//24 62//23 57//29
f 68//15 69//15 67//12
f 69//15 68//15 72//20
f 66//12 67//12 71//22
f 78//18 79//19 68//15
f 72//20 73//16 37//31
f 73//16 71//22 38//32
f 70//17 72//20 53//28
f 71//22 70//17 54//29
f 74//9 75//23 76//24
f 77//13 76//24 70//17
f 75//23 74//9 67//12
f 74//9 77//13 71//22
f 79//19 78//18 81//26
f 80//25 81//26 73//16
f 79//19 80//25 72//20
f 81//26 78//18 66//12
f 3//1 7//1 4//1
f 16//4 11//2 52//4
f 15//8 14//5 50//6
f 13//7 47//7 14//5
f 11//2 12//8 45//3
f 15//8 50//6 19//9
f 13//7 16//4 47//7
f 5//7 10//4 13//7
f 17//10 9//10 18//11
f 25//22 24//12 31//13
f 5//7 13//7 6//5
f 9//10 6//5 15//8
f 10//4 1//14 16//4
f 2//21 17//10 12//8
f 12//8 18//11 46//6
f 64//5 20//13 63//6
f 59//5 18//11 64//5
f 18//11 15//8 20//13
f 21//15 22//15 23//12
f 25//22 27//16 24//12
f 28//20 26//17 21//15
f 21//15 23//12 33//19
f 11//2 1//14 27//16
f 1//14 2//21 28//20
f 12//8 11//2 25//22
f 2//21 12//8 26//17
f 32//24 31//13 29//23
f 26//17 25//22 32//24
f 24//12 22//15 30//9
f 22//15 26//17 29//23
f 35//26 36//25 34//18
f 27//16 28//20 35//26
f 23//12 27//16 34//18
f 28//20 21//15 36//25
f 39//27 40//27 43//27
f 58//4 52//4 53//28
f 57//29 50//6 56//5
f 55//7 56//5 47//7
f 53//28 45//3 54//29
f 57//29 62//23 50//6
f 55//7 47//7 58//4
f 41//7 55//7 51//4
f 60//10 61//30 49//10
f 70//17 76//24 69//15
f 41//7 42//5 55//7
f 49//10 57//29 42//5
f 51//4 58//4 37//31
f 38//32 54//29 60//10
f 54//29 46//6 61//30
f 65//24 64//5 62//23
f 59//5 64//5 61//30
f 61//30 65//24 57//29
f 66//12 68//15 67//12
f 70//17 69//15 72//20
f 73//16 66//12 71//22
f 66//12 78//18 68//15
f 53//28 72//20 37//31
f 37//31 73//16 38//32
f 54//29 70//17 53//28
f 38//32 71//22 54//29
f 77//13 74//9 76//24
f 71//22 77//13 70//17
f 69//15 75//23 67//12
f 67//12 74//9 71//22
f 80//25 79//19 81//26
f 72//20 80//25 73//16
f 68//15 79//19 72//20
f 73//16 81//26 66//12
