# Blender v2.75 (sub 0) OBJ File: 'portal.blend'
# www.blender.org
o Cube
v 0.000000 -1.000000 -1.000000
v -0.000000 2.006685 -1.000000
v 0.000000 -1.000000 1.000000
v 0.000000 2.006684 1.000000
v 0.000000 1.698468 1.000000
v -0.000000 1.698468 -1.000000
v -0.000000 2.006684 0.683544
v 0.000000 -1.000000 0.683544
v -0.000000 1.698468 0.683544
v 0.000000 -1.000000 -0.696203
v -0.000000 1.698468 -0.696202
v -0.000000 2.006685 -0.696202
v 0.000000 1.698468 1.000000
v 0.000000 -1.000000 1.000000
v 0.000000 -1.000000 0.683544
v -0.000000 1.698468 0.683544
v 0.300000 1.698468 1.000000
v 0.300000 -1.000000 1.000000
v 0.300000 -1.000000 0.683544
v 0.300000 1.698468 0.683544
v 0.000000 -1.000000 -0.696203
v 0.000000 -1.000000 -1.000000
v -0.000000 1.698468 -1.000000
v -0.000000 1.698468 -0.696202
v 0.300000 -1.000000 -0.696203
v 0.300000 -1.000000 -1.000000
v 0.300000 1.698468 -1.000000
v 0.300000 1.698468 -0.696202
v 0.300000 2.006684 0.683544
v 0.300000 2.006684 1.000000
v 0.300000 1.698468 -1.000000
v 0.300000 2.006685 -1.000000
v 0.300000 1.698468 1.000000
v 0.300000 1.698468 -0.696202
v 0.300000 2.006685 -0.696202
v 0.300000 1.698468 0.683544
vt 0.917778 0.000402
vt 0.917778 0.730222
vt 0.905041 0.730222
vt 0.088772 0.917004
vt 0.088772 0.833990
vt 0.176339 0.833990
vt 0.974514 0.747899
vt 0.974514 0.833186
vt 0.891501 0.833186
vt 0.177142 0.917807
vt 0.262717 0.917807
vt 0.262717 0.919301
vt 0.471366 0.915534
vt 0.554379 0.915534
vt 0.554380 0.999598
vt 0.000402 0.000402
vt 0.382192 0.000402
vt 0.382192 0.747097
vt 0.265512 0.917004
vt 0.265512 0.833990
vt 0.353079 0.833990
vt 0.932122 0.730110
vt 0.932123 0.000402
vt 0.944858 0.000402
vt 0.904238 0.000402
vt 0.904238 0.730222
vt 0.891501 0.730222
vt 0.085989 0.919301
vt 0.000402 0.919301
vt 0.000402 0.917807
vt 0.382996 0.000402
vt 0.470563 0.000402
vt 0.470563 0.747097
vt 0.807684 0.000402
vt 0.890697 0.000402
vt 0.890697 0.747096
vt 0.806880 0.747097
vt 0.723867 0.747097
vt 0.723867 0.000402
vt 0.087968 0.833990
vt 0.087968 0.917004
vt 0.000402 0.917004
vt 0.640050 0.000402
vt 0.723064 0.000402
vt 0.723063 0.747097
vt 0.918582 0.730110
vt 0.918583 0.000402
vt 0.931318 0.000402
vt 0.176339 0.919241
vt 0.094187 0.919241
vt 0.094187 0.917807
vt 0.263520 0.917807
vt 0.345672 0.917807
vt 0.345672 0.919241
vt 0.471366 0.000402
vt 0.555430 0.000402
vt 0.555430 0.747097
vt 0.639247 0.747097
vt 0.556234 0.747097
vt 0.556234 0.000402
vt 0.555184 0.999598
vt 0.555183 0.915534
vt 0.638196 0.915534
vt 0.639000 0.915534
vt 0.723064 0.915534
vt 0.723064 0.998547
vt 0.382996 0.833991
vt 0.467060 0.833991
vt 0.467060 0.919277
vt 0.382996 0.833187
vt 0.382996 0.747900
vt 0.470563 0.747900
vt 0.000402 0.747900
vt 0.382192 0.747900
vt 0.382192 0.833187
vt 0.807932 0.915534
vt 0.807932 0.998547
vt 0.723868 0.998547
vt 0.891501 0.833990
vt 0.974514 0.833990
vt 0.974514 0.919276
vt 0.853157 0.747900
vt 0.853157 0.830914
vt 0.471366 0.830914
vt 0.264709 0.833990
vt 0.264709 0.917004
vt 0.177142 0.917004
vt 0.853157 0.914730
vt 0.471366 0.914730
vt 0.471366 0.831717
vt 0.905041 0.000402
vt 0.176339 0.917004
vt 0.891501 0.747899
vt 0.177142 0.919300
vt 0.471367 0.999598
vt 0.000402 0.747097
vt 0.353079 0.917004
vt 0.944857 0.730110
vt 0.891501 0.000402
vt 0.085989 0.917807
vt 0.382996 0.747097
vt 0.807684 0.747096
vt 0.806880 0.000402
vt 0.000402 0.833990
vt 0.640050 0.747097
vt 0.931317 0.730110
vt 0.176339 0.917807
vt 0.263520 0.919241
vt 0.471366 0.747097
vt 0.639247 0.000402
vt 0.638197 0.999598
vt 0.639000 0.998547
vt 0.382996 0.919277
vt 0.470563 0.833187
vt 0.000402 0.833187
vt 0.723868 0.915534
vt 0.891501 0.919276
vt 0.471366 0.747900
vt 0.177142 0.833990
vt 0.853157 0.831717
vn 0.000000 0.000000 1.000000
vn 0.000000 -0.707100 0.707100
vn 0.000000 0.707100 0.707100
vn 0.577300 0.577300 0.577300
vn 0.707100 0.707100 0.000000
vn 0.000000 0.707100 -0.707100
vn 0.577300 0.577300 -0.577300
vn 0.447200 0.000000 0.894400
vn 0.000000 1.000000 0.000000
vn 0.333300 -0.666600 0.666600
vn 0.000000 0.316200 0.948700
vn 0.000000 -0.316200 0.948700
vn 0.577300 -0.577300 0.577300
vn 0.577300 -0.577300 -0.577300
vn 0.707100 -0.707100 0.000000
s 1
f 1/1/1 6/2/2 23/3/3
f 4/4/3 30/5/4 29/6/5
f 6/7/2 2/8/6 32/9/7
f 3/10/1 8/11/8 15/12/2
f 12/13/9 35/14/5 32/15/7
f 8/16/8 10/17/8 11/18/10
f 13/19/11 17/20/4 20/21/7
f 5/22/12 3/23/1 14/24/12
f 8/25/8 9/26/10 16/27/3
f 9/28/10 5/29/12 13/30/11
f 18/31/13 19/32/14 20/33/7
f 14/34/12 18/35/13 17/36/4
f 16/37/3 20/38/7 19/39/14
f 15/40/2 19/41/14 18/42/13
f 21/43/12 25/44/13 28/45/4
f 11/46/10 10/47/8 21/48/12
f 6/49/2 11/50/10 24/51/11
f 10/52/8 1/53/1 22/54/2
f 25/55/13 26/56/14 27/57/7
f 23/58/3 27/59/7 26/60/14
f 23/61/3 24/62/11 28/63/4
f 21/64/12 22/65/2 26/66/14
f 34/67/15 31/68/14 32/69/7
f 30/70/4 33/71/13 36/72/15
f 36/73/15 34/74/15 35/75/5
f 6/76/2 31/77/14 34/78/15
f 5/79/12 33/80/13 30/81/4
f 11/82/10 34/83/15 36/84/15
f 9/85/10 36/86/15 33/87/13
f 12/88/9 7/89/9 29/90/5
f 22/91/2 1/1/1 23/3/3
f 7/92/9 4/4/3 29/6/5
f 31/93/14 6/7/2 32/9/7
f 14/94/12 3/10/1 15/12/2
f 2/95/6 12/13/9 32/15/7
f 9/96/10 8/16/8 11/18/10
f 16/97/3 13/19/11 20/21/7
f 13/98/11 5/22/12 14/24/12
f 15/99/2 8/25/8 16/27/3
f 16/100/3 9/28/10 13/30/11
f 17/101/4 18/31/13 20/33/7
f 13/102/11 14/34/12 17/36/4
f 15/103/2 16/37/3 19/39/14
f 14/104/12 15/40/2 18/42/13
f 24/105/11 21/43/12 28/45/4
f 24/106/11 11/46/10 21/48/12
f 23/107/3 6/49/2 24/51/11
f 21/108/12 10/52/8 22/54/2
f 28/109/4 25/55/13 27/57/7
f 22/110/2 23/58/3 26/60/14
f 27/111/7 23/61/3 28/63/4
f 25/112/13 21/64/12 26/66/14
f 35/113/5 34/67/15 32/69/7
f 29/114/5 30/70/4 36/72/15
f 29/115/5 36/73/15 35/75/5
f 11/116/10 6/76/2 34/78/15
f 4/117/3 5/79/12 30/81/4
f 9/118/10 11/82/10 36/84/15
f 5/119/12 9/85/10 33/87/13
f 35/120/5 12/88/9 29/90/5
