# Blender v2.75 (sub 0) OBJ File: 'tablet.blend'
# www.blender.org
o Cube
v 1.000000 -1.000000 -1.542066
v 1.000000 -1.000000 1.000000
v -1.000000 -1.000000 1.000000
v -1.000000 -1.000000 -1.542067
v 1.000000 -0.853638 -1.542066
v 0.999999 -0.853638 1.000001
v -1.000000 -0.853638 1.000000
v -1.000000 -0.853638 -1.542066
v -0.872541 -1.000000 -1.542067
v -0.872541 -1.000000 1.000000
v -0.872541 -0.853638 -1.542066
v -0.872541 -0.853638 1.000000
v 0.871640 -1.000000 -1.542066
v 0.871640 -1.000000 1.000000
v 0.871641 -0.853638 -1.542066
v 0.871640 -0.853638 1.000000
v 1.000000 -1.000000 -1.412914
v -1.000000 -1.000000 -1.412915
v 1.000000 -0.853638 -1.412914
v -1.000000 -0.853638 -1.412914
v -0.872541 -0.853638 -1.412914
v -0.872541 -1.000000 -1.412915
v 0.871640 -1.000000 -1.412914
v 0.871641 -0.853638 -1.412914
v 1.000000 -1.000000 0.433906
v 1.000000 -0.853638 0.433907
v -0.872541 -0.853638 0.433906
v 0.871640 -0.853638 0.433907
v -1.000000 -1.000000 0.433906
v -1.000000 -0.853638 0.433906
v -0.872541 -1.000000 0.433906
v 0.871640 -1.000000 0.433906
v -0.000000 -0.853638 0.547391
v -0.031030 -0.853638 0.550447
v -0.060868 -0.853638 0.559499
v -0.088367 -0.853638 0.574197
v -0.112470 -0.853638 0.593978
v -0.132250 -0.853638 0.618080
v -0.146949 -0.853638 0.645579
v -0.156000 -0.853638 0.675417
v -0.159056 -0.853638 0.706447
v -0.156000 -0.853638 0.737478
v -0.146949 -0.853638 0.767315
v -0.132250 -0.853638 0.794814
v -0.112470 -0.853638 0.818917
v -0.088367 -0.853638 0.838698
v -0.060868 -0.853638 0.853396
v -0.031030 -0.853638 0.862447
v -0.000000 -0.853638 0.865503
v 0.031030 -0.853638 0.862447
v 0.060868 -0.853638 0.853396
v 0.088367 -0.853638 0.838698
v 0.112470 -0.853638 0.818917
v 0.132250 -0.853638 0.794814
v 0.146949 -0.853638 0.767315
v 0.156000 -0.853638 0.737477
v 0.159056 -0.853638 0.706447
v 0.156000 -0.853638 0.675417
v 0.146949 -0.853638 0.645579
v 0.132250 -0.853638 0.618080
v 0.112469 -0.853638 0.593978
v 0.088367 -0.853638 0.574197
v 0.060868 -0.853638 0.559498
v 0.031030 -0.853638 0.550447
v -0.872541 -0.853638 -1.412914
v 0.871641 -0.853638 -1.412914
v -0.872541 -0.853638 0.433906
v 0.871640 -0.853638 0.433907
v -0.872541 -0.908242 -1.412914
v 0.871641 -0.908242 -1.412914
v -0.872541 -0.908242 0.433906
v 0.871640 -0.908242 0.433907
vt 0.802643 0.785273
vt 0.802643 0.749841
vt 0.960009 0.749841
vt 0.960009 0.791401
vt 0.960009 0.826832
vt 0.802643 0.826832
vt 0.643531 0.790528
vt 0.486166 0.790528
vt 0.486166 0.749841
vt 0.996313 0.790528
vt 0.960882 0.790528
vt 0.960882 0.749841
vt 0.643531 0.827303
vt 0.602845 0.827303
vt 0.602845 0.791401
vt 0.529515 0.832960
vt 0.570201 0.832960
vt 0.570201 0.868392
vt 0.485293 0.968009
vt 0.000437 0.968009
vt 0.000437 0.927322
vt 0.485291 0.926449
vt 0.000437 0.926449
vt 0.000437 0.885763
vt 0.485293 0.643531
vt 0.000437 0.643532
vt 0.000437 0.486166
vt 0.485293 0.801770
vt 0.000437 0.801770
vt 0.000437 0.644405
vt 0.644405 0.827083
vt 0.644405 0.791401
vt 0.801770 0.791401
vt 0.801770 0.863638
vt 0.644405 0.863638
vt 0.644405 0.827956
vt 0.565197 0.832087
vt 0.529514 0.832087
vt 0.529514 0.791401
vt 0.602845 0.863858
vt 0.602845 0.828176
vt 0.643531 0.828176
vt 0.838545 0.863638
vt 0.802643 0.863638
vt 0.802643 0.827956
vt 0.839419 0.863638
vt 0.839419 0.827956
vt 0.875321 0.827956
vt 0.971023 0.680960
vt 0.971023 0.716862
vt 0.486166 0.716862
vt 0.486166 0.570922
vt 0.486166 0.535020
vt 0.971023 0.535020
vt 0.000437 0.843330
vt 0.000437 0.802643
vt 0.513825 0.802643
vt 0.601972 0.832087
vt 0.566070 0.832087
vt 0.566070 0.791401
vt 0.912096 0.863387
vt 0.876194 0.863387
vt 0.876194 0.827956
vt 0.912969 0.863387
vt 0.912969 0.827956
vt 0.948872 0.827956
vt 0.644405 0.749841
vt 0.801770 0.749841
vt 0.801770 0.790528
vt 0.999553 0.680087
vt 0.486166 0.680087
vt 0.486166 0.644405
vt 0.486164 0.921445
vt 0.486176 0.885763
vt 0.999563 0.885940
vt 0.513825 0.485293
vt 0.000437 0.485293
vt 0.000437 0.000437
vt 0.966494 0.949004
vt 0.486166 0.949004
vt 0.486166 0.940621
vt 0.513824 0.884890
vt 0.000437 0.884890
vt 0.000437 0.844203
vt 0.999554 0.607227
vt 0.486166 0.607227
vt 0.486166 0.571795
vt 0.486166 0.643532
vt 0.486166 0.608100
vt 0.999554 0.608100
vt 0.513811 0.968884
vt 0.513811 0.984062
vt 0.000437 0.984062
vt 0.994759 0.968009
vt 0.486166 0.968009
vt 0.486166 0.959133
vt 0.000437 0.984935
vt 0.509107 0.984938
vt 0.509107 0.993815
vt 0.486166 0.949877
vt 0.966494 0.949877
vt 0.966494 0.958259
vt 0.999554 0.000437
vt 0.999554 0.513825
vt 0.514698 0.513825
vt 0.486166 0.748968
vt 0.486166 0.733789
vt 0.971027 0.733789
vt 0.971012 0.717736
vt 0.971012 0.732915
vt 0.486166 0.732916
vt 0.486166 0.534147
vt 0.486166 0.518967
vt 0.999558 0.518968
vt 0.960009 0.785273
vt 0.802643 0.791401
vt 0.643532 0.749841
vt 0.996313 0.749841
vt 0.643532 0.791401
vt 0.529514 0.868392
vt 0.485293 0.927322
vt 0.485291 0.885763
vt 0.485293 0.486166
vt 0.485293 0.644405
vt 0.801770 0.827083
vt 0.801770 0.827956
vt 0.565197 0.791401
vt 0.643532 0.863858
vt 0.838546 0.827956
vt 0.875321 0.863638
vt 0.486166 0.680960
vt 0.971023 0.570922
vt 0.513825 0.843330
vt 0.601972 0.791401
vt 0.912096 0.827956
vt 0.948872 0.863387
vt 0.644405 0.790528
vt 0.999553 0.644405
vt 0.999551 0.921622
vt 0.513825 0.000437
vt 0.966494 0.940621
vt 0.513824 0.844203
vt 0.999554 0.571795
vt 0.999554 0.643532
vt 0.000437 0.968882
vt 0.994759 0.959133
vt 0.000514 0.993813
vt 0.486166 0.958260
vt 0.514698 0.000437
vt 0.971027 0.748967
vt 0.486166 0.717735
vt 0.999558 0.534147
vn 0.000000 -0.707100 0.707100
vn -0.577300 -0.577300 0.577300
vn -0.707100 -0.707100 0.000000
vn 0.000000 0.832000 0.554700
vn -0.707100 0.707100 0.000000
vn -0.577300 0.577300 0.577300
vn 0.707100 0.707100 0.000000
vn 0.577300 0.577300 0.577300
vn 0.577300 -0.577300 0.577300
vn 0.000000 0.707100 0.707100
vn -0.577300 0.577300 -0.577300
vn 0.000000 0.707100 -0.707100
vn 0.000000 -0.707100 -0.707100
vn -0.577300 -0.577300 -0.577300
vn 0.000000 -1.000000 0.000000
vn 0.577300 -0.577300 -0.577300
vn 0.707100 -0.707100 0.000000
vn 0.577300 0.577300 -0.577300
vn 0.316200 0.000000 0.948700
vn -0.316200 0.000000 0.948700
vn 0.707100 0.000000 0.707100
vn -0.707100 0.000000 0.707100
s 1
f 10/1/1 3/2/2 29/3/3
f 27/4/4 30/5/5 7/6/6
f 26/7/7 6/8/8 2/9/9
f 12/10/10 7/11/6 3/12/2
f 18/13/3 20/14/5 8/15/11
f 11/16/12 9/17/13 4/18/14
f 13/19/13 9/20/13 11/21/12
f 16/22/10 12/23/10 10/24/1
f 28/25/4 27/26/4 12/27/10
f 14/28/1 10/29/1 31/30/15
f 2/31/9 14/32/1 32/33/15
f 28/34/4 16/35/10 6/36/8
f 6/37/8 16/38/10 14/39/1
f 1/40/16 13/41/13 15/42/12
f 15/43/12 24/44/4 19/45/7
f 17/46/17 23/47/15 13/48/13
f 13/49/13 23/50/15 22/51/15
f 11/52/12 21/53/4 24/54/4
f 29/55/3 30/56/5 20/57/5
f 5/58/18 19/59/7 17/60/17
f 8/61/11 20/62/5 21/63/4
f 22/64/15 18/65/3 4/66/14
f 7/67/6 30/68/5 29/69/3
f 24/70/4 28/71/4 26/72/7
f 25/73/17 32/74/15 23/75/15
f 23/76/15 32/77/15 31/78/15
f 24/79/4 21/80/4 65/81/19
f 19/82/7 26/83/7 25/84/17
f 20/85/5 30/86/5 27/87/4
f 31/88/15 29/89/3 18/90/3
f 66/91/20 70/92/6 72/93/11
f 21/94/4 27/95/4 67/96/21
f 28/97/4 24/98/4 66/99/20
f 27/100/4 28/101/4 68/102/22
f 69/103/8 71/104/18 72/105/11
f 65/106/19 69/107/8 70/108/6
f 68/109/22 72/110/11 71/111/18
f 67/112/21 71/113/18 69/114/8
f 31/115/15 10/1/1 29/3/3
f 12/116/10 27/4/4 7/6/6
f 25/117/17 26/7/7 2/9/9
f 10/118/1 12/10/10 3/12/2
f 4/119/14 18/13/3 8/15/11
f 8/120/11 11/16/12 4/18/14
f 15/121/12 13/19/13 11/21/12
f 14/122/1 16/22/10 10/24/1
f 16/123/10 28/25/4 12/27/10
f 32/124/15 14/28/1 31/30/15
f 25/125/17 2/31/9 32/33/15
f 26/126/7 28/34/4 6/36/8
f 2/127/9 6/37/8 14/39/1
f 5/128/18 1/40/16 15/42/12
f 5/129/18 15/43/12 19/45/7
f 1/130/16 17/46/17 13/48/13
f 9/131/13 13/49/13 22/51/15
f 15/132/12 11/52/12 24/54/4
f 18/133/3 29/55/3 20/57/5
f 1/134/16 5/58/18 17/60/17
f 11/135/12 8/61/11 21/63/4
f 9/136/13 22/64/15 4/66/14
f 3/137/2 7/67/6 29/69/3
f 19/138/7 24/70/4 26/72/7
f 17/139/17 25/73/17 23/75/15
f 22/140/15 23/76/15 31/78/15
f 66/141/20 24/79/4 65/81/19
f 17/142/17 19/82/7 25/84/17
f 21/143/4 20/85/5 27/87/4
f 22/144/15 31/88/15 18/90/3
f 68/145/22 66/91/20 72/93/11
f 65/146/19 21/94/4 67/96/21
f 68/147/22 28/97/4 66/99/20
f 67/148/21 27/100/4 68/102/22
f 70/149/6 69/103/8 72/105/11
f 66/150/20 65/106/19 70/108/6
f 67/151/21 68/109/22 71/111/18
f 65/152/19 67/112/21 69/114/8
